<mxfile modified="2020-10-31T14:25:59.594Z" host="app.diagrams.net" agent="5.0 (Windows NT 10.0; Win64; x64) AppleWebKit/537.36 (KHTML, like Gecko) Chrome/86.0.4240.111 Safari/537.36" etag="XMhUs-t35llRFcggoG_a" version="13.8.8" type="github">
  <diagram id="Ht1M8jgEwFfnCIfOTk4-" name="Baseline">
    <mxGraphModel dx="1185" dy="1864" grid="1" gridSize="10" guides="1" tooltips="1" connect="1" arrows="1" fold="1" page="1" pageScale="1" pageWidth="827" pageHeight="1169" math="0" shadow="0">
      <root>
        <mxCell id="0" />
        <mxCell id="1" parent="0" />
        <mxCell id="fEWSsfInUBWigz7cEwma-26" value="VPC" style="outlineConnect=0;gradientColor=none;html=1;whiteSpace=wrap;fontSize=12;fontStyle=0;shape=mxgraph.aws4.group;grIcon=mxgraph.aws4.group_vpc;strokeColor=#879196;fillColor=none;verticalAlign=top;align=left;spacingLeft=30;fontColor=#879196;dashed=0;" parent="1" vertex="1">
          <mxGeometry x="1241" y="740" width="260" height="130" as="geometry" />
        </mxCell>
        <mxCell id="fEWSsfInUBWigz7cEwma-25" value="z" style="outlineConnect=0;gradientColor=none;html=1;whiteSpace=wrap;fontSize=12;fontStyle=0;shape=mxgraph.aws4.group;grIcon=mxgraph.aws4.group_vpc;strokeColor=#879196;fillColor=none;verticalAlign=top;align=left;spacingLeft=30;fontColor=#879196;dashed=0;movable=0;resizable=0;rotatable=0;deletable=0;editable=0;connectable=0;" parent="1" vertex="1">
          <mxGeometry x="350" y="490" width="810" height="380" as="geometry" />
        </mxCell>
        <mxCell id="fEWSsfInUBWigz7cEwma-69" value="VPC" style="outlineConnect=0;gradientColor=none;html=1;whiteSpace=wrap;fontSize=12;fontStyle=0;shape=mxgraph.aws4.group;grIcon=mxgraph.aws4.group_vpc;strokeColor=#879196;fillColor=none;verticalAlign=top;align=left;spacingLeft=30;fontColor=#879196;dashed=0;movable=0;resizable=0;rotatable=0;deletable=0;editable=0;connectable=0;" parent="1" vertex="1">
          <mxGeometry x="122.25" width="1467.75" height="970" as="geometry" />
        </mxCell>
        <mxCell id="-QjtrjUzRDEMRZ5MF8oH-42" value="1" style="rounded=1;whiteSpace=wrap;html=1;fillColor=#007CBD;strokeColor=none;fontColor=#FFFFFF;fontStyle=1;fontSize=22;labelBackgroundColor=none;" parent="1" vertex="1">
          <mxGeometry x="1700" y="76.5" width="40" height="38" as="geometry" />
        </mxCell>
        <mxCell id="-QjtrjUzRDEMRZ5MF8oH-43" value="2" style="rounded=1;whiteSpace=wrap;html=1;fillColor=#007CBD;strokeColor=none;fontColor=#FFFFFF;fontStyle=1;fontSize=22;labelBackgroundColor=none;" parent="1" vertex="1">
          <mxGeometry x="1700" y="168" width="40" height="38" as="geometry" />
        </mxCell>
        <mxCell id="SCVMTBWpLvtzJIhz15lM-13" value="Cloudwatch can be set to enable timed triggering of lambda functions that enable polling for different API endpoints" style="text;html=1;align=left;verticalAlign=top;spacingTop=-4;fontSize=14;labelBackgroundColor=none;whiteSpace=wrap;" parent="1" vertex="1">
          <mxGeometry x="1781" y="67.5" width="259" height="113" as="geometry" />
        </mxCell>
        <mxCell id="SCVMTBWpLvtzJIhz15lM-14" value="Explanation of SQS &amp;lt;Subscription Model&amp;gt; as an alternative to Polling APIs" style="text;html=1;align=left;verticalAlign=top;spacingTop=-4;fontSize=14;labelBackgroundColor=none;whiteSpace=wrap;" parent="1" vertex="1">
          <mxGeometry x="1780" y="169.5" width="250" height="53.5" as="geometry" />
        </mxCell>
        <mxCell id="jZVaUwOg5UY3L9NAnvdq-179" value="" style="group" parent="1" vertex="1" connectable="0">
          <mxGeometry x="1350" y="384.5" width="21" height="26" as="geometry" />
        </mxCell>
        <mxCell id="jZVaUwOg5UY3L9NAnvdq-180" value="" style="rounded=0;whiteSpace=wrap;html=1;labelBackgroundColor=#ffffff;fontSize=14;align=center;strokeColor=none;" parent="jZVaUwOg5UY3L9NAnvdq-179" vertex="1">
          <mxGeometry width="21" height="26" as="geometry" />
        </mxCell>
        <mxCell id="gl3oY4MYR-EuyxaPfRnC-24" value="Store user preferences, subscriptions" style="edgeStyle=none;rounded=0;orthogonalLoop=1;jettySize=auto;html=1;startArrow=none;startFill=0;labelBorderColor=#000000;" parent="1" edge="1" target="fEWSsfInUBWigz7cEwma-18">
          <mxGeometry relative="1" as="geometry">
            <mxPoint x="448" y="490" as="targetPoint" />
            <mxPoint x="439" y="420" as="sourcePoint" />
          </mxGeometry>
        </mxCell>
        <mxCell id="gl3oY4MYR-EuyxaPfRnC-27" style="rounded=0;orthogonalLoop=1;jettySize=auto;html=1;startArrow=block;startFill=1;endArrow=block;endFill=1;" parent="1" source="gl3oY4MYR-EuyxaPfRnC-5" target="gl3oY4MYR-EuyxaPfRnC-6" edge="1">
          <mxGeometry relative="1" as="geometry">
            <mxPoint x="790" y="374" as="targetPoint" />
          </mxGeometry>
        </mxCell>
        <mxCell id="gl3oY4MYR-EuyxaPfRnC-5" value="Web Client API" style="outlineConnect=0;dashed=0;verticalLabelPosition=bottom;verticalAlign=top;align=center;html=1;shape=mxgraph.aws3.api_gateway;fillColor=#D9A741;gradientColor=none;" parent="1" vertex="1">
          <mxGeometry x="401" y="291.5" width="76.5" height="93" as="geometry" />
        </mxCell>
        <mxCell id="gl3oY4MYR-EuyxaPfRnC-6" value="USER API / FRIDGE / POS" style="outlineConnect=0;dashed=0;verticalLabelPosition=bottom;verticalAlign=top;align=center;html=1;shape=mxgraph.aws3.api_gateway;fillColor=#D9A741;gradientColor=none;" parent="1" vertex="1">
          <mxGeometry x="751" y="291.5" width="76.5" height="93" as="geometry" />
        </mxCell>
        <mxCell id="gl3oY4MYR-EuyxaPfRnC-16" style="edgeStyle=orthogonalEdgeStyle;rounded=0;orthogonalLoop=1;jettySize=auto;html=1;" parent="1" target="gl3oY4MYR-EuyxaPfRnC-13" edge="1">
          <mxGeometry relative="1" as="geometry">
            <Array as="points">
              <mxPoint x="445" y="792" />
            </Array>
            <mxPoint x="445" y="592" as="sourcePoint" />
          </mxGeometry>
        </mxCell>
        <mxCell id="gl3oY4MYR-EuyxaPfRnC-18" value="Store subscription details, purchase details" style="edgeLabel;html=1;align=center;verticalAlign=middle;resizable=0;points=[];labelBorderColor=#000000;" parent="gl3oY4MYR-EuyxaPfRnC-16" vertex="1" connectable="0">
          <mxGeometry x="-0.1933" y="59" relative="1" as="geometry">
            <mxPoint x="112.5" y="57.5" as="offset" />
          </mxGeometry>
        </mxCell>
        <mxCell id="gl3oY4MYR-EuyxaPfRnC-17" style="edgeStyle=orthogonalEdgeStyle;rounded=0;orthogonalLoop=1;jettySize=auto;html=1;" parent="1" target="gl3oY4MYR-EuyxaPfRnC-13" edge="1">
          <mxGeometry relative="1" as="geometry">
            <mxPoint x="792.5294117647059" y="592" as="sourcePoint" />
          </mxGeometry>
        </mxCell>
        <mxCell id="gl3oY4MYR-EuyxaPfRnC-19" value="Purchase Detail Notification" style="edgeStyle=orthogonalEdgeStyle;rounded=0;orthogonalLoop=1;jettySize=auto;html=1;labelBorderColor=#000000;" parent="1" edge="1">
          <mxGeometry relative="1" as="geometry">
            <mxPoint x="757.9999999999998" y="556" as="sourcePoint" />
            <mxPoint x="483" y="556" as="targetPoint" />
          </mxGeometry>
        </mxCell>
        <mxCell id="fEWSsfInUBWigz7cEwma-63" style="edgeStyle=orthogonalEdgeStyle;rounded=0;orthogonalLoop=1;jettySize=auto;html=1;startArrow=none;startFill=0;" parent="1" edge="1">
          <mxGeometry relative="1" as="geometry">
            <mxPoint x="1421" y="350" as="targetPoint" />
            <mxPoint x="820" y="520" as="sourcePoint" />
            <Array as="points">
              <mxPoint x="820" y="460" />
              <mxPoint x="1421" y="460" />
            </Array>
          </mxGeometry>
        </mxCell>
        <mxCell id="gl3oY4MYR-EuyxaPfRnC-20" value="Store purchase info, link to &lt;br&gt;user/subscription if possible" style="edgeStyle=none;rounded=0;orthogonalLoop=1;jettySize=auto;html=1;startArrow=none;startFill=0;entryX=0.952;entryY=0;entryDx=0;entryDy=0;entryPerimeter=0;exitX=0;exitY=0.79;exitDx=0;exitDy=0;exitPerimeter=0;" parent="1" source="fEWSsfInUBWigz7cEwma-67" target="gl3oY4MYR-EuyxaPfRnC-13" edge="1">
          <mxGeometry x="-0.0293" y="-10" relative="1" as="geometry">
            <mxPoint x="1053.75" y="556" as="sourcePoint" />
            <Array as="points">
              <mxPoint x="960" y="593" />
              <mxPoint x="960" y="720" />
              <mxPoint x="860" y="720" />
            </Array>
            <mxPoint as="offset" />
          </mxGeometry>
        </mxCell>
        <mxCell id="gl3oY4MYR-EuyxaPfRnC-21" value="Update Supplies Data" style="edgeStyle=none;rounded=0;orthogonalLoop=1;jettySize=auto;html=1;startArrow=none;startFill=0;entryX=0.988;entryY=0.229;entryDx=0;entryDy=0;entryPerimeter=0;labelBorderColor=#000000;" parent="1" target="gl3oY4MYR-EuyxaPfRnC-13" edge="1">
          <mxGeometry x="-0.1093" y="-40" relative="1" as="geometry">
            <mxPoint x="964.5000000000002" y="760" as="targetPoint" />
            <Array as="points">
              <mxPoint x="1090" y="767" />
            </Array>
            <mxPoint x="-40" y="40" as="offset" />
            <mxPoint x="1090" y="640" as="sourcePoint" />
          </mxGeometry>
        </mxCell>
        <mxCell id="fEWSsfInUBWigz7cEwma-28" style="edgeStyle=orthogonalEdgeStyle;rounded=0;orthogonalLoop=1;jettySize=auto;html=1;entryX=0.994;entryY=0.803;entryDx=0;entryDy=0;entryPerimeter=0;endArrow=classic;endFill=1;startArrow=classic;startFill=1;" parent="1" target="gl3oY4MYR-EuyxaPfRnC-13" edge="1">
          <mxGeometry relative="1" as="geometry">
            <mxPoint x="1240" y="800.5" as="targetPoint" />
            <mxPoint x="1350" y="807" as="sourcePoint" />
            <Array as="points">
              <mxPoint x="1330" y="807" />
            </Array>
          </mxGeometry>
        </mxCell>
        <mxCell id="gl3oY4MYR-EuyxaPfRnC-12" value="DATABASE" style="outlineConnect=0;dashed=0;verticalLabelPosition=bottom;verticalAlign=top;align=center;html=1;shape=mxgraph.aws3.dynamo_db;fillColor=#2E73B8;gradientColor=none;" parent="1" vertex="1">
          <mxGeometry x="1350" y="760" width="72" height="81" as="geometry" />
        </mxCell>
        <mxCell id="gl3oY4MYR-EuyxaPfRnC-13" value="DB Cache" style="aspect=fixed;html=1;points=[];align=center;image;fontSize=12;image=img/lib/azure2/general/Cache.svg;" parent="1" vertex="1">
          <mxGeometry x="751" y="740" width="83" height="83" as="geometry" />
        </mxCell>
        <mxCell id="gl3oY4MYR-EuyxaPfRnC-25" value="Manage Fridge Contents" style="edgeStyle=none;rounded=0;orthogonalLoop=1;jettySize=auto;html=1;startArrow=none;startFill=0;entryX=0.5;entryY=0;entryDx=0;entryDy=0;entryPerimeter=0;labelBorderColor=#000000;" parent="1" edge="1" target="fEWSsfInUBWigz7cEwma-67">
          <mxGeometry x="-0.6" relative="1" as="geometry">
            <mxPoint x="1088" y="420" as="sourcePoint" />
            <mxPoint as="offset" />
            <mxPoint x="1140.0046153846151" y="566.08" as="targetPoint" />
          </mxGeometry>
        </mxCell>
        <mxCell id="gl3oY4MYR-EuyxaPfRnC-22" value="Web Client API" style="outlineConnect=0;dashed=0;verticalLabelPosition=bottom;verticalAlign=top;align=center;html=1;shape=mxgraph.aws3.api_gateway;fillColor=#D9A741;gradientColor=none;" parent="1" vertex="1">
          <mxGeometry x="1050" y="291.5" width="76.5" height="93" as="geometry" />
        </mxCell>
        <mxCell id="gl3oY4MYR-EuyxaPfRnC-26" value="Check supplies in the area, manage the pricing" style="shape=note;whiteSpace=wrap;html=1;backgroundOutline=1;darkOpacity=0.05;" parent="1" vertex="1">
          <mxGeometry x="1190" y="42.37" width="102.25" height="106.25" as="geometry" />
        </mxCell>
        <mxCell id="jE5sYu9Vxkrzj_yrKMdt-1" value="Add/remove item to cart add/remove coupon to cart&amp;nbsp;&lt;br&gt;checkout&lt;br&gt;clear" style="shape=note;whiteSpace=wrap;html=1;backgroundOutline=1;darkOpacity=0.05;" parent="1" vertex="1">
          <mxGeometry x="990" y="-200" width="106" height="100" as="geometry" />
        </mxCell>
        <mxCell id="jE5sYu9Vxkrzj_yrKMdt-2" value="" style="endArrow=classic;html=1;" parent="1" edge="1">
          <mxGeometry width="50" height="50" relative="1" as="geometry">
            <mxPoint x="790" y="420" as="sourcePoint" />
            <mxPoint x="790" y="520" as="targetPoint" />
          </mxGeometry>
        </mxCell>
        <mxCell id="jE5sYu9Vxkrzj_yrKMdt-3" value="check cart price" style="edgeLabel;html=1;align=center;verticalAlign=middle;resizable=0;points=[];labelBorderColor=#000000;" parent="jE5sYu9Vxkrzj_yrKMdt-2" vertex="1" connectable="0">
          <mxGeometry x="-0.92" relative="1" as="geometry">
            <mxPoint x="-170" y="-46.190000000000005" as="offset" />
          </mxGeometry>
        </mxCell>
        <mxCell id="jE5sYu9Vxkrzj_yrKMdt-4" value="user website/app sms preferences" style="shape=note;whiteSpace=wrap;html=1;backgroundOutline=1;darkOpacity=0.05;" parent="1" vertex="1">
          <mxGeometry x="331.25000000000006" y="-182.88" width="84.62" height="100" as="geometry" />
        </mxCell>
        <mxCell id="jE5sYu9Vxkrzj_yrKMdt-5" value="Config within/area availability zone" style="rounded=1;whiteSpace=wrap;html=1;" parent="1" vertex="1">
          <mxGeometry x="125.25" y="-274.25" width="101" height="50.5" as="geometry" />
        </mxCell>
        <mxCell id="jE5sYu9Vxkrzj_yrKMdt-6" value="" style="endArrow=none;html=1;" parent="1" edge="1">
          <mxGeometry width="50" height="50" relative="1" as="geometry">
            <mxPoint x="840" y="340" as="sourcePoint" />
            <mxPoint x="990" y="340" as="targetPoint" />
          </mxGeometry>
        </mxCell>
        <mxCell id="jE5sYu9Vxkrzj_yrKMdt-9" value="check supplies&lt;br&gt;update supplies on purchase/restocking" style="edgeLabel;html=1;align=center;verticalAlign=middle;resizable=0;points=[];labelBorderColor=#000000;" parent="jE5sYu9Vxkrzj_yrKMdt-6" vertex="1" connectable="0">
          <mxGeometry x="0.856" y="-2" relative="1" as="geometry">
            <mxPoint x="-53.2" y="-31.5" as="offset" />
          </mxGeometry>
        </mxCell>
        <mxCell id="jE5sYu9Vxkrzj_yrKMdt-7" value="" style="endArrow=none;html=1;endFill=0;" parent="1" edge="1">
          <mxGeometry width="50" height="50" relative="1" as="geometry">
            <mxPoint x="990" y="340" as="sourcePoint" />
            <mxPoint x="990" y="560" as="targetPoint" />
          </mxGeometry>
        </mxCell>
        <mxCell id="fEWSsfInUBWigz7cEwma-18" value="User Data Handlers" style="outlineConnect=0;dashed=0;verticalLabelPosition=bottom;verticalAlign=top;align=center;html=1;shape=mxgraph.aws3.lambda;fillColor=#F58534;gradientColor=none;" parent="1" vertex="1">
          <mxGeometry x="401" y="509.5" width="76.5" height="93" as="geometry" />
        </mxCell>
        <mxCell id="fEWSsfInUBWigz7cEwma-31" value="SQS&amp;nbsp;" style="outlineConnect=0;dashed=0;verticalLabelPosition=bottom;verticalAlign=top;align=center;html=1;shape=mxgraph.aws3.sqs;fillColor=#D9A741;gradientColor=none;" parent="1" vertex="1">
          <mxGeometry x="867.5" y="19.97" width="46.5" height="56.53" as="geometry" />
        </mxCell>
        <mxCell id="fEWSsfInUBWigz7cEwma-38" value="" style="group" parent="1" vertex="1" connectable="0">
          <mxGeometry x="810" y="-240" width="141.5" height="104.5" as="geometry" />
        </mxCell>
        <mxCell id="fEWSsfInUBWigz7cEwma-22" value="" style="shape=image;html=1;verticalAlign=top;verticalLabelPosition=bottom;labelBackgroundColor=#ffffff;imageAspect=0;aspect=fixed;image=https://cdn0.iconfinder.com/data/icons/cryptocurrency-blockchain-fintech-free/32/finance_Checkout_order_order_checkout_stripe_terminal_credit_card-65-128.png;fillColor=none;" parent="fEWSsfInUBWigz7cEwma-38" vertex="1">
          <mxGeometry width="52.25" height="52.25" as="geometry" />
        </mxCell>
        <mxCell id="fEWSsfInUBWigz7cEwma-23" value="" style="shape=image;html=1;verticalAlign=top;verticalLabelPosition=bottom;labelBackgroundColor=#ffffff;imageAspect=0;aspect=fixed;image=https://cdn0.iconfinder.com/data/icons/cryptocurrency-blockchain-fintech-free/32/finance_Checkout_order_order_checkout_stripe_terminal_credit_card-65-128.png;fillColor=none;" parent="fEWSsfInUBWigz7cEwma-38" vertex="1">
          <mxGeometry x="42.25" y="25.37" width="52.25" height="52.25" as="geometry" />
        </mxCell>
        <mxCell id="fEWSsfInUBWigz7cEwma-24" value="" style="shape=image;html=1;verticalAlign=top;verticalLabelPosition=bottom;labelBackgroundColor=#ffffff;imageAspect=0;aspect=fixed;image=https://cdn0.iconfinder.com/data/icons/cryptocurrency-blockchain-fintech-free/32/finance_Checkout_order_order_checkout_stripe_terminal_credit_card-65-128.png;fillColor=none;" parent="fEWSsfInUBWigz7cEwma-38" vertex="1">
          <mxGeometry x="89.25" y="52.25" width="52.25" height="52.25" as="geometry" />
        </mxCell>
        <mxCell id="fEWSsfInUBWigz7cEwma-39" value="" style="group" parent="1" vertex="1" connectable="0">
          <mxGeometry x="604.62" y="-240" width="120" height="79.25" as="geometry" />
        </mxCell>
        <mxCell id="fEWSsfInUBWigz7cEwma-14" value="" style="shape=image;html=1;verticalAlign=top;verticalLabelPosition=bottom;labelBackgroundColor=#ffffff;imageAspect=0;aspect=fixed;image=https://cdn2.iconfinder.com/data/icons/home-sweet-home-4/320/fredge-128.png;fillColor=none;" parent="fEWSsfInUBWigz7cEwma-39" vertex="1">
          <mxGeometry width="41.05722891566265" height="41.05722891566265" as="geometry" />
        </mxCell>
        <mxCell id="fEWSsfInUBWigz7cEwma-20" value="" style="shape=image;html=1;verticalAlign=top;verticalLabelPosition=bottom;labelBackgroundColor=#ffffff;imageAspect=0;aspect=fixed;image=https://cdn2.iconfinder.com/data/icons/home-sweet-home-4/320/fredge-128.png;fillColor=none;" parent="fEWSsfInUBWigz7cEwma-39" vertex="1">
          <mxGeometry x="41.81" y="20.532500000000002" width="38.19277108433735" height="38.19277108433735" as="geometry" />
        </mxCell>
        <mxCell id="fEWSsfInUBWigz7cEwma-21" value="" style="shape=image;html=1;verticalAlign=top;verticalLabelPosition=bottom;labelBackgroundColor=#ffffff;imageAspect=0;aspect=fixed;image=https://cdn2.iconfinder.com/data/icons/home-sweet-home-4/320/fredge-128.png;fillColor=none;" parent="fEWSsfInUBWigz7cEwma-39" vertex="1">
          <mxGeometry x="80" y="41.05722891566265" width="38.19277108433735" height="38.19277108433735" as="geometry" />
        </mxCell>
        <mxCell id="fEWSsfInUBWigz7cEwma-35" value="CloudWatch" style="outlineConnect=0;dashed=0;verticalLabelPosition=bottom;verticalAlign=top;align=center;html=1;shape=mxgraph.aws3.cloudwatch;fillColor=#759C3E;gradientColor=none;" parent="1" vertex="1">
          <mxGeometry x="550" y="19.97" width="100" height="78.64" as="geometry" />
        </mxCell>
        <mxCell id="fEWSsfInUBWigz7cEwma-77" style="edgeStyle=orthogonalEdgeStyle;rounded=0;orthogonalLoop=1;jettySize=auto;html=1;startArrow=none;startFill=0;" parent="1" source="fEWSsfInUBWigz7cEwma-19" edge="1">
          <mxGeometry relative="1" as="geometry">
            <mxPoint x="792.5" y="290" as="targetPoint" />
            <Array as="points">
              <mxPoint x="793" y="257" />
            </Array>
          </mxGeometry>
        </mxCell>
        <mxCell id="fEWSsfInUBWigz7cEwma-19" value="Data Transform -&amp;gt; &lt;br&gt;Converts data from Queue or API to normalized data&amp;nbsp;" style="outlineConnect=0;dashed=0;verticalLabelPosition=bottom;verticalAlign=top;align=center;html=1;shape=mxgraph.aws3.lambda;fillColor=#F58534;gradientColor=none;" parent="1" vertex="1">
          <mxGeometry x="751" y="130" width="76.5" height="93" as="geometry" />
        </mxCell>
        <mxCell id="fEWSsfInUBWigz7cEwma-45" value="API Poller" style="outlineConnect=0;dashed=0;verticalLabelPosition=bottom;verticalAlign=top;align=center;html=1;shape=mxgraph.aws3.lambda;fillColor=#F58534;gradientColor=none;" parent="1" vertex="1">
          <mxGeometry x="700" y="26.5" width="36.5" height="36" as="geometry" />
        </mxCell>
        <mxCell id="fEWSsfInUBWigz7cEwma-47" value="" style="endArrow=classic;html=1;entryX=0;entryY=0.79;entryDx=0;entryDy=0;entryPerimeter=0;" parent="1" source="fEWSsfInUBWigz7cEwma-35" target="fEWSsfInUBWigz7cEwma-45" edge="1">
          <mxGeometry width="50" height="50" relative="1" as="geometry">
            <mxPoint x="620" y="106.5" as="sourcePoint" />
            <mxPoint x="670" y="56.5" as="targetPoint" />
          </mxGeometry>
        </mxCell>
        <mxCell id="fEWSsfInUBWigz7cEwma-48" value="" style="endArrow=classic;html=1;startArrow=block;startFill=1;" parent="1" edge="1">
          <mxGeometry width="50" height="50" relative="1" as="geometry">
            <mxPoint x="710" y="16.5" as="sourcePoint" />
            <mxPoint x="710" y="-90" as="targetPoint" />
          </mxGeometry>
        </mxCell>
        <mxCell id="fEWSsfInUBWigz7cEwma-50" value="" style="endArrow=classic;html=1;" parent="1" edge="1">
          <mxGeometry width="50" height="50" relative="1" as="geometry">
            <mxPoint x="720" y="86.5" as="sourcePoint" />
            <mxPoint x="750" y="140" as="targetPoint" />
          </mxGeometry>
        </mxCell>
        <mxCell id="fEWSsfInUBWigz7cEwma-51" value="" style="endArrow=classic;html=1;startArrow=classic;startFill=1;" parent="1" source="fEWSsfInUBWigz7cEwma-31" edge="1">
          <mxGeometry width="50" height="50" relative="1" as="geometry">
            <mxPoint x="750" y="36.5" as="sourcePoint" />
            <mxPoint x="891" y="-80" as="targetPoint" />
          </mxGeometry>
        </mxCell>
        <mxCell id="fEWSsfInUBWigz7cEwma-53" value="" style="endArrow=classic;html=1;" parent="1" edge="1">
          <mxGeometry width="50" height="50" relative="1" as="geometry">
            <mxPoint x="860" y="76.5" as="sourcePoint" />
            <mxPoint x="819.8351769911505" y="143" as="targetPoint" />
          </mxGeometry>
        </mxCell>
        <mxCell id="fEWSsfInUBWigz7cEwma-54" value="Central Kitchen" style="shape=image;html=1;verticalAlign=top;verticalLabelPosition=bottom;labelBackgroundColor=#ffffff;imageAspect=0;aspect=fixed;image=https://cdn1.iconfinder.com/data/icons/locations-redesign/48/Chef1-128.png;fillColor=none;" parent="1" vertex="1">
          <mxGeometry x="1372.25" y="-184.5" width="118" height="118" as="geometry" />
        </mxCell>
        <mxCell id="fEWSsfInUBWigz7cEwma-55" value="" style="endArrow=classic;html=1;startArrow=none;startFill=0;" parent="1" edge="1">
          <mxGeometry width="50" height="50" relative="1" as="geometry">
            <mxPoint x="1088.11" y="-80" as="sourcePoint" />
            <mxPoint x="1088.11" y="260" as="targetPoint" />
          </mxGeometry>
        </mxCell>
        <mxCell id="fEWSsfInUBWigz7cEwma-56" value="" style="endArrow=classic;startArrow=classic;html=1;" parent="1" edge="1">
          <mxGeometry width="50" height="50" relative="1" as="geometry">
            <mxPoint x="400" y="290" as="sourcePoint" />
            <mxPoint x="250" y="-30" as="targetPoint" />
          </mxGeometry>
        </mxCell>
        <mxCell id="fEWSsfInUBWigz7cEwma-59" style="edgeStyle=orthogonalEdgeStyle;rounded=0;orthogonalLoop=1;jettySize=auto;html=1;startArrow=blockThin;startFill=1;" parent="1" source="fEWSsfInUBWigz7cEwma-58" target="gl3oY4MYR-EuyxaPfRnC-5" edge="1">
          <mxGeometry relative="1" as="geometry">
            <mxPoint x="78.25" y="340" as="targetPoint" />
            <Array as="points">
              <mxPoint x="240" y="340" />
            </Array>
          </mxGeometry>
        </mxCell>
        <mxCell id="fEWSsfInUBWigz7cEwma-71" style="edgeStyle=orthogonalEdgeStyle;rounded=0;orthogonalLoop=1;jettySize=auto;html=1;startArrow=none;startFill=0;" parent="1" source="fEWSsfInUBWigz7cEwma-58" edge="1">
          <mxGeometry relative="1" as="geometry">
            <mxPoint x="50" y="-60" as="targetPoint" />
          </mxGeometry>
        </mxCell>
        <mxCell id="fEWSsfInUBWigz7cEwma-58" value="SNS" style="outlineConnect=0;dashed=0;verticalLabelPosition=bottom;verticalAlign=top;align=center;html=1;shape=mxgraph.aws3.sns;fillColor=#D9A741;gradientColor=none;" parent="1" vertex="1">
          <mxGeometry x="180" y="214" width="96.5" height="96.5" as="geometry" />
        </mxCell>
        <mxCell id="fEWSsfInUBWigz7cEwma-64" style="edgeStyle=orthogonalEdgeStyle;rounded=0;orthogonalLoop=1;jettySize=auto;html=1;startArrow=none;startFill=0;" parent="1" source="fEWSsfInUBWigz7cEwma-62" edge="1">
          <mxGeometry relative="1" as="geometry">
            <mxPoint x="1431" y="-30" as="targetPoint" />
            <Array as="points">
              <mxPoint x="1431" y="-30" />
            </Array>
          </mxGeometry>
        </mxCell>
        <mxCell id="fEWSsfInUBWigz7cEwma-62" value="SNS" style="outlineConnect=0;dashed=0;verticalLabelPosition=bottom;verticalAlign=top;align=center;html=1;shape=mxgraph.aws3.sns;fillColor=#D9A741;gradientColor=none;" parent="1" vertex="1">
          <mxGeometry x="1372.25" y="214" width="96.5" height="96.5" as="geometry" />
        </mxCell>
        <mxCell id="fEWSsfInUBWigz7cEwma-66" value="Pricing Handlers" style="outlineConnect=0;dashed=0;verticalLabelPosition=bottom;verticalAlign=top;align=center;html=1;shape=mxgraph.aws3.lambda;fillColor=#F58534;gradientColor=none;" parent="1" vertex="1">
          <mxGeometry x="754.25" y="520" width="76.5" height="93" as="geometry" />
        </mxCell>
        <mxCell id="fEWSsfInUBWigz7cEwma-67" value="Smart Fridge / POS Handler" style="outlineConnect=0;dashed=0;verticalLabelPosition=bottom;verticalAlign=top;align=center;html=1;shape=mxgraph.aws3.lambda;fillColor=#F58534;gradientColor=none;" parent="1" vertex="1">
          <mxGeometry x="1050" y="520" width="76.5" height="93" as="geometry" />
        </mxCell>
        <mxCell id="fEWSsfInUBWigz7cEwma-70" value="" style="group" parent="1" vertex="1" connectable="0">
          <mxGeometry x="125.25" y="-214.25" width="206" height="142" as="geometry" />
        </mxCell>
        <mxCell id="fEWSsfInUBWigz7cEwma-57" value="" style="rounded=0;whiteSpace=wrap;html=1;fillColor=none;" parent="fEWSsfInUBWigz7cEwma-70" vertex="1">
          <mxGeometry width="206" height="142" as="geometry" />
        </mxCell>
        <mxCell id="fEWSsfInUBWigz7cEwma-12" value="" style="outlineConnect=0;fontColor=#232F3E;gradientColor=none;fillColor=#232F3E;strokeColor=none;dashed=0;verticalLabelPosition=bottom;verticalAlign=top;align=center;html=1;fontSize=12;fontStyle=0;aspect=fixed;pointerEvents=1;shape=mxgraph.aws4.mobile_client;" parent="fEWSsfInUBWigz7cEwma-70" vertex="1">
          <mxGeometry x="20" y="13.930000000000007" width="60" height="114.15" as="geometry" />
        </mxCell>
        <mxCell id="fEWSsfInUBWigz7cEwma-13" value="" style="verticalLabelPosition=bottom;html=1;verticalAlign=top;align=center;strokeColor=none;fillColor=#00BEF2;shape=mxgraph.azure.laptop;pointerEvents=1;" parent="fEWSsfInUBWigz7cEwma-70" vertex="1">
          <mxGeometry x="110" y="44" width="70" height="54" as="geometry" />
        </mxCell>
        <mxCell id="fEWSsfInUBWigz7cEwma-72" value="" style="shape=actor;whiteSpace=wrap;html=1;fillColor=none;" parent="1" vertex="1">
          <mxGeometry x="20" y="-200" width="60" height="90" as="geometry" />
        </mxCell>
        <mxCell id="fEWSsfInUBWigz7cEwma-73" value="CLIENT" style="text;html=1;strokeColor=none;fillColor=none;align=center;verticalAlign=middle;whiteSpace=wrap;rounded=0;" parent="1" vertex="1">
          <mxGeometry x="220" y="-64.88" width="40" height="20" as="geometry" />
        </mxCell>
        <mxCell id="fEWSsfInUBWigz7cEwma-75" value="SMART FRIDGES" style="text;html=1;strokeColor=none;fillColor=none;align=center;verticalAlign=middle;whiteSpace=wrap;rounded=0;" parent="1" vertex="1">
          <mxGeometry x="630" y="-153.25" width="40" height="20" as="geometry" />
        </mxCell>
        <mxCell id="fEWSsfInUBWigz7cEwma-76" value="POS" style="text;html=1;strokeColor=none;fillColor=none;align=center;verticalAlign=middle;whiteSpace=wrap;rounded=0;" parent="1" vertex="1">
          <mxGeometry x="860" y="-135.5" width="40" height="20" as="geometry" />
        </mxCell>
        <mxCell id="fEWSsfInUBWigz7cEwma-80" value="" style="rounded=0;whiteSpace=wrap;html=1;fillColor=none;" parent="1" vertex="1">
          <mxGeometry x="570" y="-274.25" width="410" height="174.25" as="geometry" />
        </mxCell>
        <mxCell id="9ot6IsqcDrNDyghikGJW-1" value="Customers" style="text;html=1;strokeColor=none;fillColor=none;align=center;verticalAlign=middle;whiteSpace=wrap;rounded=0;" vertex="1" parent="1">
          <mxGeometry x="30" y="-100" width="40" height="20" as="geometry" />
        </mxCell>
        <mxCell id="9ot6IsqcDrNDyghikGJW-2" style="edgeStyle=orthogonalEdgeStyle;rounded=0;orthogonalLoop=1;jettySize=auto;html=1;" edge="1" parent="1" source="fEWSsfInUBWigz7cEwma-57">
          <mxGeometry relative="1" as="geometry">
            <mxPoint x="90" y="-143.25000000000023" as="targetPoint" />
          </mxGeometry>
        </mxCell>
        <mxCell id="9ot6IsqcDrNDyghikGJW-3" value="1" style="rounded=1;whiteSpace=wrap;html=1;fillColor=#007CBD;strokeColor=none;fontColor=#FFFFFF;fontStyle=1;fontSize=22;labelBackgroundColor=none;" vertex="1" parent="1">
          <mxGeometry x="490" y="38.5" width="40" height="38" as="geometry" />
        </mxCell>
        <mxCell id="9ot6IsqcDrNDyghikGJW-5" value="" style="endArrow=classic;html=1;" edge="1" parent="1">
          <mxGeometry width="50" height="50" relative="1" as="geometry">
            <mxPoint x="990" y="560" as="sourcePoint" />
            <mxPoint x="1050" y="560" as="targetPoint" />
          </mxGeometry>
        </mxCell>
        <mxCell id="9ot6IsqcDrNDyghikGJW-6" value="2" style="rounded=1;whiteSpace=wrap;html=1;fillColor=#007CBD;strokeColor=none;fontColor=#FFFFFF;fontStyle=1;fontSize=22;labelBackgroundColor=none;" vertex="1" parent="1">
          <mxGeometry x="950" y="38.5" width="40" height="38" as="geometry" />
        </mxCell>
        <mxCell id="9ot6IsqcDrNDyghikGJW-7" value="3" style="rounded=1;whiteSpace=wrap;html=1;fillColor=#007CBD;strokeColor=none;fontColor=#FFFFFF;fontStyle=1;fontSize=22;labelBackgroundColor=none;" vertex="1" parent="1">
          <mxGeometry x="836.13" y="823" width="40" height="38" as="geometry" />
        </mxCell>
        <mxCell id="9ot6IsqcDrNDyghikGJW-8" value="2" style="rounded=1;whiteSpace=wrap;html=1;fillColor=#007CBD;strokeColor=none;fontColor=#FFFFFF;fontStyle=1;fontSize=22;labelBackgroundColor=none;" vertex="1" parent="1">
          <mxGeometry x="310" y="243.25" width="40" height="38" as="geometry" />
        </mxCell>
        <mxCell id="9ot6IsqcDrNDyghikGJW-11" value="" style="endArrow=none;html=1;" edge="1" parent="1">
          <mxGeometry width="50" height="50" relative="1" as="geometry">
            <mxPoint x="1090" y="-80" as="sourcePoint" />
            <mxPoint x="1360" y="-80" as="targetPoint" />
          </mxGeometry>
        </mxCell>
      </root>
    </mxGraphModel>
  </diagram>
</mxfile>
